<svg width="467" height="154" viewBox="0 0 467 154" fill="none" xmlns="http://www.w3.org/2000/svg">
<g clip-path="url(#clip0_49_59)">
<path d="M64.1914 0.503296C73.2907 0.503302 82.2507 1.59951 91.0771 3.7865C99.7411 5.93682 107.4 9.1407 114.056 13.39L104.033 38.6342C97.3805 34.7948 90.723 31.9263 84.0625 30.0472C77.2345 28.1223 70.5406 27.1576 63.9824 27.1576C57.4393 27.1576 52.0412 27.9414 47.8115 29.5287C43.6051 31.1098 40.5265 33.1795 38.6494 35.767C36.7819 38.3404 35.8525 41.3163 35.8525 44.6752C35.8526 48.5358 37.3497 51.6872 40.3252 54.0931L40.6182 54.3236C43.5332 56.5633 47.3032 58.3774 51.9033 59.7719L52.834 60.0453C57.8287 61.4663 63.3421 62.8866 69.3711 64.3041C75.3852 65.72 81.3971 67.3508 87.4121 69.1898C93.3984 71.0225 98.8635 73.4874 103.808 76.5804C108.727 79.6587 112.722 83.7147 115.8 88.7523C118.857 93.7585 120.4 100.116 120.4 107.849C120.4 116.12 118.144 123.684 113.628 130.546V130.547C109.118 137.405 102.373 142.95 93.3711 147.172C84.5051 151.328 73.306 153.447 59.7539 153.503H59.2051C47.6172 153.503 36.5168 151.914 25.9004 148.74C15.4406 145.61 7.02083 141.564 0.612305 136.617L11.6309 111.59C17.8017 115.999 25.0543 119.624 33.3838 122.463C41.9511 125.389 50.6264 126.852 59.4092 126.852C66.0845 126.852 71.5101 126.178 75.667 124.805C79.808 123.439 82.9156 121.519 84.9365 119.006C86.9474 116.508 87.9551 113.631 87.9551 110.398C87.955 106.41 86.4606 103.182 83.4824 100.768L83.1895 100.537L82.5947 100.095C79.5662 97.9098 75.689 96.119 70.9805 94.7113C66.606 93.4041 61.835 92.1563 56.6699 90.9594L54.4316 90.4496L52.1787 89.931C46.9213 88.6861 41.665 87.1978 36.4062 85.4633H36.4053C30.4155 83.4899 24.9493 80.955 20 77.8578C15.0811 74.782 11.0854 70.7228 8.00781 65.6849C4.95181 60.6799 3.40723 54.2562 3.40723 46.3763C3.40728 38.2242 5.49296 30.7725 9.66895 24.0062L10.0801 23.3539C14.5169 16.4303 21.2231 10.887 30.2266 6.73474C39.2115 2.58991 50.5283 0.503296 64.1914 0.503296Z" fill="white" stroke="#1C1C1F"/>
<mask id="path-2-inside-1_49_59" fill="white">
<path d="M385.385 95.0068L438.941 2.55273H466.57L466.986 151.447H435.41L435.224 62.0781L392.406 135.705H377.241L334.656 64.0059V151.447H303.077V2.55273H330.916L385.385 95.0068Z"/>
</mask>
<path d="M385.385 95.0068L438.941 2.55273H466.57L466.986 151.447H435.41L435.224 62.0781L392.406 135.705H377.241L334.656 64.0059V151.447H303.077V2.55273H330.916L385.385 95.0068Z" fill="white"/>
<path d="M385.385 95.0068L384.523 95.5144L385.392 96.9893L386.25 95.5081L385.385 95.0068ZM438.941 2.55273V1.55273H438.365L438.076 2.05148L438.941 2.55273ZM466.57 2.55273L467.57 2.54994L467.568 1.55273H466.57V2.55273ZM466.986 151.447V152.447H467.989L467.986 151.444L466.986 151.447ZM435.41 151.447L434.41 151.449L434.412 152.447H435.41V151.447ZM435.224 62.0781L436.224 62.076L436.216 58.3826L434.359 61.5754L435.224 62.0781ZM392.406 135.705V136.705H392.982L393.271 136.208L392.406 135.705ZM377.241 135.705L376.381 136.216L376.672 136.705H377.241V135.705ZM334.656 64.0059L335.516 63.4952L333.656 60.3639V64.0059H334.656ZM334.656 151.447V152.447H335.656V151.447H334.656ZM303.077 151.447H302.077V152.447H303.077V151.447ZM303.077 2.55273V1.55273H302.077V2.55273H303.077ZM330.916 2.55273L331.778 2.04513L331.488 1.55273H330.916V2.55273ZM385.385 95.0068L386.25 95.5081L439.807 3.05398L438.941 2.55273L438.076 2.05148L384.519 94.5056L385.385 95.0068ZM438.941 2.55273V3.55273H466.57V2.55273V1.55273H438.941V2.55273ZM466.57 2.55273L465.57 2.55553L465.986 151.45L466.986 151.447L467.986 151.444L467.57 2.54994L466.57 2.55273ZM466.986 151.447V150.447H435.41V151.447V152.447H466.986V151.447ZM435.41 151.447L436.41 151.445L436.224 62.076L435.224 62.0781L434.224 62.0802L434.41 151.449L435.41 151.447ZM435.224 62.0781L434.359 61.5754L391.542 135.202L392.406 135.705L393.271 136.208L436.088 62.5808L435.224 62.0781ZM392.406 135.705V134.705H377.241V135.705V136.705H392.406V135.705ZM377.241 135.705L378.101 135.194L335.516 63.4952L334.656 64.0059L333.796 64.5165L376.381 136.216L377.241 135.705ZM334.656 64.0059H333.656V151.447H334.656H335.656V64.0059H334.656ZM334.656 151.447V150.447H303.077V151.447V152.447H334.656V151.447ZM303.077 151.447H304.077V2.55273H303.077H302.077V151.447H303.077ZM303.077 2.55273V3.55273H330.916V2.55273V1.55273H303.077V2.55273ZM330.916 2.55273L330.054 3.06034L384.523 95.5144L385.385 95.0068L386.246 94.4992L331.778 2.04513L330.916 2.55273Z" fill="#1C1C1F" mask="url(#path-2-inside-1_49_59)"/>
<path d="M222.568 3.05243L287.153 150.947H252.941L206.521 36.2077L206.058 35.0641L205.594 36.2077L183.539 90.5085C182.676 92.6358 182.24 94.9251 182.313 97.2302L182.335 97.6921C182.357 98.0712 182.395 98.4329 182.449 98.7468C183.271 103.458 186.38 107.889 189.869 111.553C192.823 114.656 196.09 117.248 198.579 119.043H171.95L171.823 119.354L158.991 150.947H125.605L189.985 3.05243H222.568Z" fill="white" stroke="#1C1C1F"/>
<path d="M225.799 97.0431C225.145 105.293 214.352 114.218 207.971 118.338C207.459 118.668 206.218 119.582 205.674 119.567C205.167 119.553 203.923 118.656 203.43 118.338C197.082 114.248 187.168 106.123 185.782 98.1834C184.448 90.5144 190.285 82.8011 198.189 84.0054C201.21 84.4659 204.147 86.6799 205.621 89.3889L205.782 89.3397C208.349 84.9117 213.46 82.7371 218.299 84.4758C222.468 85.9731 225.465 90.3863 225.797 94.8661V97.0407L225.799 97.0431Z" fill="#F28D38"/>
</g>
<defs>
<clipPath id="clip0_49_59">
<rect width="467" height="154" fill="white"/>
</clipPath>
</defs>
</svg>
